<svg width="21" height="24" viewBox="0 0 21 24" fill="none" xmlns="http://www.w3.org/2000/svg">
<path d="M17.4509 12.6722C17.4735 15.0331 18.8459 16.3771 19.8258 17.0375C20.3469 17.3886 20.6591 18.0083 20.4163 18.5767C20.1403 19.2228 19.7035 20.1035 19.0714 20.9992C18.0324 22.4714 16.9542 23.9382 15.2556 23.9685C13.5866 23.9984 13.0499 23.009 11.1417 23.009C9.23409 23.009 8.63781 23.9382 7.05788 23.9984C5.4183 24.0586 4.16974 22.4065 3.12223 20.9396C0.981666 17.9392 -0.654167 12.4612 1.54234 8.7635C2.63352 6.92719 4.58354 5.76436 6.70011 5.73454C8.31013 5.70477 9.82975 6.7847 10.814 6.7847C11.7977 6.7847 13.6443 5.48598 15.5857 5.67672C16.253 5.70364 17.9103 5.90091 19.2928 7.12122C19.8179 7.58464 19.6309 8.37224 19.1245 8.8548C18.3543 9.58874 17.434 10.8478 17.4509 12.6722ZM14.3141 3.6917C14.9527 2.94231 15.4381 1.97736 15.5883 0.957796C15.681 0.329118 15.0942 -0.153176 14.4719 0.0451592C13.5263 0.346568 12.5772 0.940396 11.9388 1.6647C11.3209 2.35733 10.7618 3.36861 10.6197 4.42739C10.5438 4.99306 11.0442 5.45254 11.6194 5.33263C12.6679 5.11404 13.6523 4.46884 14.3141 3.6917Z" fill="#1A1D1F"/>
</svg>
