<svg width="24" height="24" viewBox="0 0 24 24" fill="none" xmlns="http://www.w3.org/2000/svg">
<path d="M13.002 5C13.002 4.44772 12.5543 4 12.002 4C11.4498 4 11.002 4.44772 11.002 5V13.0863L8.20906 10.2933C7.81854 9.90278 7.18537 9.90278 6.79485 10.2933C6.40432 10.6838 6.40432 11.317 6.79485 11.7075L10.5878 15.5005C11.3688 16.2815 12.6352 16.2815 13.4162 15.5005L17.2072 11.7095C17.5977 11.3189 17.5977 10.6858 17.2072 10.2953C16.8167 9.90473 16.1835 9.90473 15.793 10.2953L13.002 13.0862V5Z" fill="white"/>
<path fill-rule="evenodd" clip-rule="evenodd" d="M4 14C4.55228 14 5 14.4477 5 15V17C5 17.5523 5.44772 18 6 18H18C18.5523 18 19 17.5523 19 17V15C19 14.4477 19.4477 14 20 14C20.5523 14 21 14.4477 21 15V17C21 18.6569 19.6569 20 18 20H6C4.34315 20 3 18.6569 3 17V15C3 14.4477 3.44772 14 4 14Z" fill="white"/>
</svg>
