<svg width="20" height="20" viewBox="0 0 20 20" fill="none" xmlns="http://www.w3.org/2000/svg">
<path fill-rule="evenodd" clip-rule="evenodd" d="M12.1131 3.17364C13.0894 2.19733 14.6723 2.19733 15.6486 3.17364L16.8271 4.35215C17.8034 5.32846 17.8034 6.91137 16.8271 7.88768L8.16669 16.5481C8.05035 16.6644 7.90219 16.7437 7.74086 16.776L3.32145 17.6599C2.73834 17.7765 2.22424 17.2624 2.34086 16.6793L3.22475 12.2599C3.25701 12.0986 3.33631 11.9504 3.45264 11.8341L12.1131 3.17364ZM14.4701 4.35215L15.6486 5.53066C15.974 5.8561 15.974 6.38374 15.6486 6.70917L14.4701 7.88769L12.1131 5.53067L13.2916 4.35215C13.617 4.02671 14.1447 4.02671 14.4701 4.35215ZM10.9346 6.70918L4.80957 12.8342L4.22031 15.7804L7.16659 15.1912L13.2916 9.0662L10.9346 6.70918Z" fill="#6F767E"/>
</svg>
