<svg width="16" height="20" viewBox="0 0 16 20" fill="none" xmlns="http://www.w3.org/2000/svg">
<path fill-rule="evenodd" clip-rule="evenodd" d="M3 6V5C3 2.23858 5.23858 0 8 0C10.7614 0 13 2.23858 13 5V6C14.6569 6 16 7.34315 16 9V17C16 18.6569 14.6569 20 13 20H3C1.34315 20 0 18.6569 0 17V9C0 7.34315 1.34315 6 3 6ZM5 5C5 3.34315 6.34315 2 8 2C9.65685 2 11 3.34315 11 5V6H5V5ZM2 9C2 8.44772 2.44772 8 3 8H13C13.5523 8 14 8.44772 14 9V17C14 17.5523 13.5523 18 13 18H3C2.44772 18 2 17.5523 2 17V9Z" fill="#6F767E"/>
</svg>
