<svg width="24" height="24" viewBox="0 0 24 24" fill="none" xmlns="http://www.w3.org/2000/svg">
<path fill-rule="evenodd" clip-rule="evenodd" d="M10.0544 2.34556C11.1756 1.39002 12.8248 1.39002 13.9461 2.34556L15.2175 3.4291C15.3777 3.56559 15.5768 3.64808 15.7866 3.66482L17.4518 3.7977C18.9204 3.91489 20.0865 5.08102 20.2037 6.54955L20.3366 8.21479C20.3533 8.42456 20.4358 8.6237 20.5723 8.78386L21.6558 10.0553C22.6114 11.1766 22.6114 12.8258 21.6558 13.947L20.5723 15.2185C20.4358 15.3787 20.3533 15.5778 20.3366 15.7876L20.2037 17.4528C20.0865 18.9213 18.9204 20.0875 17.4518 20.2047L15.7866 20.3375C15.5768 20.3543 15.3777 20.4368 15.2175 20.5733L13.9461 21.6568C12.8248 22.6123 11.1756 22.6123 10.0544 21.6568L8.78289 20.5733C8.62272 20.4368 8.42358 20.3543 8.21382 20.3375L6.54858 20.2047C5.08005 20.0875 3.91392 18.9213 3.79673 17.4528L3.66384 15.7876C3.6471 15.5778 3.56461 15.3787 3.42812 15.2185L2.34459 13.947C1.38904 12.8258 1.38904 11.1766 2.34459 10.0553L3.42812 8.78386C3.56461 8.6237 3.6471 8.42456 3.66384 8.21479L3.79673 6.54955C3.91392 5.08102 5.08005 3.91489 6.54858 3.7977L8.21382 3.66482C8.42358 3.64808 8.62272 3.56559 8.78289 3.4291L10.0544 2.34556ZM12.6488 3.86779C12.2751 3.54928 11.7253 3.54928 11.3516 3.86779L10.0801 4.95133C9.59963 5.3608 9.00221 5.60826 8.37291 5.65848L6.70767 5.79136C6.21816 5.83043 5.82945 6.21914 5.79039 6.70865L5.6575 8.37389C5.60728 9.00319 5.35982 9.60061 4.95035 10.0811L3.86682 11.3526C3.5483 11.7263 3.5483 12.276 3.86682 12.6498L4.95035 13.9213C5.35982 14.4018 5.60728 14.9992 5.6575 15.6285L5.79039 17.2937C5.82945 17.7832 6.21816 18.1719 6.70767 18.211L8.37291 18.3439C9.00221 18.3941 9.59963 18.6416 10.0801 19.051L11.3516 20.1346C11.7253 20.4531 12.2751 20.4531 12.6488 20.1346L13.9203 19.051C14.4008 18.6416 14.9982 18.3941 15.6275 18.3439L17.2927 18.211C17.7822 18.1719 18.171 17.7832 18.21 17.2937L18.3429 15.6285C18.3931 14.9992 18.6406 14.4018 19.0501 13.9213L20.1336 12.6498C20.4521 12.276 20.4521 11.7263 20.1336 11.3526L19.0501 10.0811C18.6406 9.60061 18.3931 9.00319 18.3429 8.37389L18.21 6.70865C18.171 6.21914 17.7822 5.83043 17.2927 5.79136L15.6275 5.65848C14.9982 5.60826 14.4008 5.3608 13.9203 4.95133L12.6488 3.86779Z" fill="#6F767E"/>
<path d="M11 9.5C11 10.3284 10.3284 11 9.5 11C8.67157 11 8 10.3284 8 9.5C8 8.67157 8.67157 8 9.5 8C10.3284 8 11 8.67157 11 9.5Z" fill="#6F767E"/>
<path d="M16 14.5C16 15.3284 15.3284 16 14.5 16C13.6716 16 13 15.3284 13 14.5C13 13.6716 13.6716 13 14.5 13C15.3284 13 16 13.6716 16 14.5Z" fill="#6F767E"/>
<path fill-rule="evenodd" clip-rule="evenodd" d="M15.1402 8.2318C15.5645 8.58537 15.6218 9.21593 15.2682 9.64021L10.2682 15.6402C9.91468 16.0645 9.28412 16.1218 8.85984 15.7682C8.43556 15.4147 8.37824 14.7841 8.7318 14.3598L13.7318 8.35984C14.0854 7.93556 14.7159 7.87824 15.1402 8.2318Z" fill="#6F767E"/>
</svg>
