<svg width="20" height="20" viewBox="0 0 20 20" fill="none" xmlns="http://www.w3.org/2000/svg">
<path fill-rule="evenodd" clip-rule="evenodd" d="M8.33333 8.33203C8.79357 8.33203 9.16667 8.70513 9.16667 9.16536V13.332C9.16667 13.7923 8.79357 14.1654 8.33333 14.1654C7.8731 14.1654 7.5 13.7923 7.5 13.332V9.16536C7.5 8.70513 7.8731 8.33203 8.33333 8.33203Z" fill="#6F767E"/>
<path fill-rule="evenodd" clip-rule="evenodd" d="M11.6668 8.33203C12.1271 8.33203 12.5002 8.70513 12.5002 9.16536V13.332C12.5002 13.7923 12.1271 14.1654 11.6668 14.1654C11.2066 14.1654 10.8335 13.7923 10.8335 13.332V9.16536C10.8335 8.70513 11.2066 8.33203 11.6668 8.33203Z" fill="#6F767E"/>
<path fill-rule="evenodd" clip-rule="evenodd" d="M8.33317 1.66797C6.95246 1.66797 5.83317 2.78726 5.83317 4.16797H3.33317H2.49984C2.0396 4.16797 1.6665 4.54106 1.6665 5.0013C1.6665 5.46154 2.0396 5.83464 2.49984 5.83464H3.33317V15.8346C3.33317 17.2153 4.45246 18.3346 5.83317 18.3346H14.1665C15.5472 18.3346 16.6665 17.2153 16.6665 15.8346V5.83464H17.4998C17.9601 5.83464 18.3332 5.46154 18.3332 5.0013C18.3332 4.54106 17.9601 4.16797 17.4998 4.16797H16.6665H14.1665C14.1665 2.78726 13.0472 1.66797 11.6665 1.66797H8.33317ZM12.4998 4.16797C12.4998 3.70773 12.1267 3.33464 11.6665 3.33464H8.33317C7.87293 3.33464 7.49984 3.70773 7.49984 4.16797H12.4998ZM5.83317 5.83464H4.99984V15.8346C4.99984 16.2949 5.37293 16.668 5.83317 16.668H14.1665C14.6267 16.668 14.9998 16.2949 14.9998 15.8346V5.83464H14.1665H5.83317Z" fill="#6F767E"/>
</svg>
